# xmcd CD database file
#
# Track frame offsets:
#	150
#	18213
#	30651
#	43781
#	66596
#	79891
#	93679
#	106928
#	120449
#	133835
#	148396
#	165374
#	180986
#	195294
#	209472
#	222833
#	236366
#	248392
#	262476
#
# Disc length: 3754 seconds
#
# Revision: 1
# Processed by: cddbd v1.5.2PL0 Copyright (c) Steve Scherf et al.
# Submitted via: CDex 1.81
#
DISCID=0e0ea813
DTITLE=Erroll Garner - JB 09 Erroll Garner
DYEAR=2004
DGENRE=Jazz
TTITLE0=I've Got The World On A String
TTITLE1=Stardust
TTITLE2=Pastel
TTITLE3=Don't Worry 'Bout Me
TTITLE4=Confessin'
TTITLE5=I Surrender Dear
TTITLE6=I May Be Wrong
TTITLE7=Body And Soul
TTITLE8=I Can't Get Started
TTITLE9=Impressions
TTITLE10=It Could Happen To You
TTITLE11=I Don't Know Why
TTITLE12=Skylark
TTITLE13=I Can't Give You Anything But Love
TTITLE14=I Only Have Eyes For You
TTITLE15=All The Things You Are
TTITLE16=Ghost Of A Chance
TTITLE17=Yesterdays
TTITLE18=My Heart Stood Still
EXTD=YEAR: 2004
EXTT0=
EXTT1=
EXTT2=
EXTT3=
EXTT4=
EXTT5=
EXTT6=
EXTT7=
EXTT8=
EXTT9=
EXTT10=
EXTT11=
EXTT12=
EXTT13=
EXTT14=
EXTT15=
EXTT16=
EXTT17=
EXTT18=
PLAYORDER=
